<?xml version="1.0" encoding="UTF-8"?>
<svg xmlns="http://www.w3.org/2000/svg" viewBox="0 0 64 64" width="64" height="64" role="img">
  <rect width="64" height="64" fill="none"/>
  <g shape-rendering="geometricPrecision" stroke-linecap="round" stroke-linejoin="round">

    <ellipse cx="32" cy="54" rx="16" ry="5" fill="#00000024" stroke="none"/>
    <path d="M19 30c0-10 5-18 13-18s13 8 13 18v10c0 8-5 13-13 13s-13-5-13-13z" fill="#2f4858" stroke="#343a42" stroke-width="2.4"/>
    <path d="M21 30h24v9c0 6-5 10-12 10s-12-4-12-10z" fill="#f4f1e9" opacity=".15" stroke="none"/>
    <path d="M21 27c2-8 6-13 11-13s9 5 11 13H21z" fill="#5d6670" stroke="#343a42" stroke-width="2.4"/>
    <circle cx="27" cy="32" r="1.8" fill="#20242a"/>
    <circle cx="37" cy="32" r="1.8" fill="#20242a"/>
    <path d="M28 37h8" stroke="#343a42" stroke-width="1.6" fill="none"/>
    <path d="M49 18l3 3-18 18-3-3z" fill="#87909a" stroke="#343a42" stroke-width="2.4"/>
    <path d="M47 24l-6-6" stroke="#343a42" stroke-width="2.2"/>
    <path d="M11 40l-4 3 3 4 4-3z" fill="#87909a" stroke="#343a42" stroke-width="2.4"/>
    <path d="M30 21l2-4 2 4-2 3z" fill="#d6a843" stroke="#343a42" stroke-width="1.2"/>

  </g>
</svg>
