<?xml version="1.0" encoding="UTF-8"?>
<svg xmlns="http://www.w3.org/2000/svg" viewBox="0 0 64 64" width="64" height="64" role="img">
  <rect width="64" height="64" fill="none"/>
  <g shape-rendering="geometricPrecision" stroke-linecap="round" stroke-linejoin="round">

    <ellipse cx="32" cy="54" rx="16" ry="5" fill="#00000024" stroke="none"/>
    <path d="M19 30c0-10 5-18 13-18s13 8 13 18v10c0 8-5 13-13 13s-13-5-13-13z" fill="#8a6fb0" stroke="#343a42" stroke-width="2.4"/>
    <path d="M21 30h24v9c0 6-5 10-12 10s-12-4-12-10z" fill="#f4f1e9" opacity=".15" stroke="none"/>
    <path d="M21 27c2-8 6-13 11-13s9 5 11 13H21z" fill="#5e496c" stroke="#343a42" stroke-width="2.4"/>
    <circle cx="27" cy="32" r="1.8" fill="#20242a"/>
    <circle cx="37" cy="32" r="1.8" fill="#20242a"/>
    <path d="M28 37h8" stroke="#343a42" stroke-width="1.6" fill="none"/>
    <path d="M49 15v28" stroke="#5d6670" stroke-width="2.6" stroke-linecap="round"/>
    <circle cx="49" cy="13" r="4" fill="#d6a843" stroke="#343a42" stroke-width="1.6"/>
    <path d="M46 13h6M49 10v6" stroke="#20242a" stroke-width="1.2"/>
    <path d="M29 20h6v6h-6z" fill="#ded6c4" stroke="#343a42" stroke-width="1.2"/>

  </g>
</svg>
