<?xml version="1.0" encoding="UTF-8"?>
<svg xmlns="http://www.w3.org/2000/svg" viewBox="0 0 64 64" width="64" height="64" role="img">
  <rect width="64" height="64" fill="none"/>
  <g shape-rendering="geometricPrecision" stroke-linecap="round" stroke-linejoin="round">

    <ellipse cx="32" cy="54" rx="16" ry="5" fill="#00000024" stroke="none"/>
    <path d="M19 30c0-10 5-18 13-18s13 8 13 18v10c0 8-5 13-13 13s-13-5-13-13z" fill="#5f8f73" stroke="#343a42" stroke-width="2.4"/>
    <path d="M21 30h24v9c0 6-5 10-12 10s-12-4-12-10z" fill="#f4f1e9" opacity=".15" stroke="none"/>
    <path d="M21 27c2-8 6-13 11-13s9 5 11 13H21z" fill="#5e496c" stroke="#343a42" stroke-width="2.4"/>
    <circle cx="27" cy="32" r="1.8" fill="#20242a"/>
    <circle cx="37" cy="32" r="1.8" fill="#20242a"/>
    <path d="M28 37h8" stroke="#343a42" stroke-width="1.6" fill="none"/>
    <path d="M50 14c-4 6-4 22 0 34" fill="none" stroke="#343a42" stroke-width="2.4"/>
    <path d="M50 14l0 34" stroke="#ded6c4" stroke-width="1"/>
    <path d="M50 30l6 0M44 30l-4 0" stroke="#343a42" stroke-width="1.6" fill="none"/>
    <path d="M28 20h8l-4 5z" fill="#8ec9a6" stroke="#343a42" stroke-width="1.2"/>

  </g>
</svg>
