<?xml version="1.0" encoding="UTF-8"?>
<svg xmlns="http://www.w3.org/2000/svg" viewBox="0 0 64 64" width="64" height="64" role="img">
  <rect width="64" height="64" fill="none"/>
  <g shape-rendering="geometricPrecision" stroke-linecap="round" stroke-linejoin="round">

    <ellipse cx="32" cy="54" rx="16" ry="5" fill="#00000024" stroke="none"/>
    <path d="M14 22c0-8 8-14 18-14s18 6 18 14l-3 24c-4 4-9 6-15 6s-11-2-15-6z" fill="#777067" stroke="#343a42" stroke-width="2.4"/>
    <path d="M22 12l-3-6M42 12l3-6M32 6v-4" stroke="#343a42" stroke-width="1.6" fill="none"/>
    <circle cx="27" cy="24" r="2" fill="#f4f1e9"/>
    <circle cx="37" cy="24" r="2" fill="#f4f1e9"/>
    <circle cx="27" cy="24.3" r="0.8" fill="#20242a"/>
    <circle cx="37" cy="24.3" r="0.8" fill="#20242a"/>
    <path d="M26 36l3 3 3-3 3 3 3-3" stroke="#343a42" stroke-width="1.6" fill="none"/>

  </g>
</svg>
