<?xml version="1.0" encoding="UTF-8"?>
<svg xmlns="http://www.w3.org/2000/svg" viewBox="0 0 64 64" width="64" height="64" role="img">
  <rect width="64" height="64" fill="none"/>
  <g shape-rendering="geometricPrecision" stroke-linecap="round" stroke-linejoin="round">

    <ellipse cx="32" cy="54" rx="16" ry="5" fill="#00000024" stroke="none"/>
    <path d="M14 38c4-12 10-18 18-18s14 6 18 18c-5 8-11 12-18 12s-13-4-18-12z" fill="#c9653b" stroke="#343a42" stroke-width="2.4"/>
    <path d="M18 32L8 26M46 32l10-6M20 44l-10 5M44 44l10 5" stroke="#343a42" stroke-width="1.6" fill="none"/>
    <circle cx="27" cy="34" r="2" fill="#f4f1e9"/>
    <circle cx="37" cy="34" r="2" fill="#f4f1e9"/>
    <circle cx="27" cy="34.3" r="0.8" fill="#20242a"/>
    <circle cx="37" cy="34.3" r="0.8" fill="#20242a"/>
    <path d="M26 40c4 3 8 3 12 0" stroke="#343a42" stroke-width="1.6" fill="none"/>

  </g>
</svg>
